<mxfile host="app.diagrams.net" modified="2023-06-24T19:45:12.604Z" agent="Mozilla/5.0 (Windows NT 10.0; Win64; x64) AppleWebKit/537.36 (KHTML, like Gecko) Chrome/114.0.0.0 Safari/537.36" etag="iBr3IpxxBuD3epp3gZgE" version="21.3.2" type="device">
  <diagram id="C5RBs43oDa-KdzZeNtuy" name="Page-1">
    <mxGraphModel dx="472" dy="754" grid="1" gridSize="10" guides="1" tooltips="1" connect="1" arrows="1" fold="1" page="1" pageScale="1" pageWidth="827" pageHeight="1169" math="0" shadow="0">
      <root>
        <mxCell id="WIyWlLk6GJQsqaUBKTNV-0" />
        <mxCell id="WIyWlLk6GJQsqaUBKTNV-1" parent="WIyWlLk6GJQsqaUBKTNV-0" />
        <mxCell id="xNNHHZg9rpnOxeQLHLPz-5" style="edgeStyle=orthogonalEdgeStyle;rounded=0;orthogonalLoop=1;jettySize=auto;html=1;exitX=0.5;exitY=1;exitDx=0;exitDy=0;entryX=0.5;entryY=0;entryDx=0;entryDy=0;" edge="1" parent="WIyWlLk6GJQsqaUBKTNV-1" source="xNNHHZg9rpnOxeQLHLPz-1" target="xNNHHZg9rpnOxeQLHLPz-4">
          <mxGeometry relative="1" as="geometry" />
        </mxCell>
        <mxCell id="xNNHHZg9rpnOxeQLHLPz-1" value="Present the &quot;Guess the Number&quot; Ascii Art and welcome the player to the game" style="rounded=1;whiteSpace=wrap;html=1;fillColor=#dae8fc;strokeColor=#6c8ebf;" vertex="1" parent="WIyWlLk6GJQsqaUBKTNV-1">
          <mxGeometry x="40" y="150" width="120" height="60" as="geometry" />
        </mxCell>
        <mxCell id="xNNHHZg9rpnOxeQLHLPz-3" style="edgeStyle=orthogonalEdgeStyle;rounded=0;orthogonalLoop=1;jettySize=auto;html=1;exitX=0.5;exitY=1;exitDx=0;exitDy=0;exitPerimeter=0;" edge="1" parent="WIyWlLk6GJQsqaUBKTNV-1" source="xNNHHZg9rpnOxeQLHLPz-2" target="xNNHHZg9rpnOxeQLHLPz-1">
          <mxGeometry relative="1" as="geometry" />
        </mxCell>
        <mxCell id="xNNHHZg9rpnOxeQLHLPz-2" value="Start" style="strokeWidth=2;html=1;shape=mxgraph.flowchart.start_1;whiteSpace=wrap;fillColor=#d5e8d4;strokeColor=#82b366;" vertex="1" parent="WIyWlLk6GJQsqaUBKTNV-1">
          <mxGeometry x="50" y="30" width="100" height="60" as="geometry" />
        </mxCell>
        <mxCell id="xNNHHZg9rpnOxeQLHLPz-7" style="edgeStyle=orthogonalEdgeStyle;rounded=0;orthogonalLoop=1;jettySize=auto;html=1;exitX=0.5;exitY=1;exitDx=0;exitDy=0;entryX=0.5;entryY=0;entryDx=0;entryDy=0;" edge="1" parent="WIyWlLk6GJQsqaUBKTNV-1" source="xNNHHZg9rpnOxeQLHLPz-4" target="xNNHHZg9rpnOxeQLHLPz-6">
          <mxGeometry relative="1" as="geometry" />
        </mxCell>
        <mxCell id="xNNHHZg9rpnOxeQLHLPz-4" value="Create a variable that stores a random number between 1 - 100&amp;nbsp;" style="rounded=1;whiteSpace=wrap;html=1;fillColor=#dae8fc;strokeColor=#6c8ebf;" vertex="1" parent="WIyWlLk6GJQsqaUBKTNV-1">
          <mxGeometry x="40" y="270" width="120" height="60" as="geometry" />
        </mxCell>
        <mxCell id="xNNHHZg9rpnOxeQLHLPz-12" style="edgeStyle=orthogonalEdgeStyle;rounded=0;orthogonalLoop=1;jettySize=auto;html=1;exitX=0.5;exitY=1;exitDx=0;exitDy=0;" edge="1" parent="WIyWlLk6GJQsqaUBKTNV-1" source="xNNHHZg9rpnOxeQLHLPz-6" target="xNNHHZg9rpnOxeQLHLPz-11">
          <mxGeometry relative="1" as="geometry" />
        </mxCell>
        <mxCell id="xNNHHZg9rpnOxeQLHLPz-6" value="Display on the console that the program is thinking of a number between 1 - 100" style="rounded=1;whiteSpace=wrap;html=1;fillColor=#dae8fc;strokeColor=#6c8ebf;" vertex="1" parent="WIyWlLk6GJQsqaUBKTNV-1">
          <mxGeometry x="35" y="390" width="130" height="70" as="geometry" />
        </mxCell>
        <mxCell id="xNNHHZg9rpnOxeQLHLPz-14" value="Hard" style="edgeStyle=orthogonalEdgeStyle;rounded=0;orthogonalLoop=1;jettySize=auto;html=1;exitX=1;exitY=0.5;exitDx=0;exitDy=0;exitPerimeter=0;entryX=0;entryY=0.5;entryDx=0;entryDy=0;" edge="1" parent="WIyWlLk6GJQsqaUBKTNV-1" source="xNNHHZg9rpnOxeQLHLPz-11" target="xNNHHZg9rpnOxeQLHLPz-13">
          <mxGeometry relative="1" as="geometry" />
        </mxCell>
        <mxCell id="xNNHHZg9rpnOxeQLHLPz-16" value="Easy" style="edgeStyle=orthogonalEdgeStyle;rounded=0;orthogonalLoop=1;jettySize=auto;html=1;exitX=0.5;exitY=1;exitDx=0;exitDy=0;exitPerimeter=0;" edge="1" parent="WIyWlLk6GJQsqaUBKTNV-1" source="xNNHHZg9rpnOxeQLHLPz-11" target="xNNHHZg9rpnOxeQLHLPz-15">
          <mxGeometry relative="1" as="geometry" />
        </mxCell>
        <mxCell id="xNNHHZg9rpnOxeQLHLPz-11" value="Easy/Hard mode?" style="strokeWidth=2;html=1;shape=mxgraph.flowchart.decision;whiteSpace=wrap;fillColor=#fff2cc;strokeColor=#d6b656;" vertex="1" parent="WIyWlLk6GJQsqaUBKTNV-1">
          <mxGeometry x="40" y="527" width="120" height="115" as="geometry" />
        </mxCell>
        <mxCell id="xNNHHZg9rpnOxeQLHLPz-19" style="edgeStyle=orthogonalEdgeStyle;rounded=0;orthogonalLoop=1;jettySize=auto;html=1;exitX=0.5;exitY=1;exitDx=0;exitDy=0;" edge="1" parent="WIyWlLk6GJQsqaUBKTNV-1" source="xNNHHZg9rpnOxeQLHLPz-13" target="xNNHHZg9rpnOxeQLHLPz-17">
          <mxGeometry relative="1" as="geometry" />
        </mxCell>
        <mxCell id="xNNHHZg9rpnOxeQLHLPz-13" value="Lives = 5" style="rounded=1;whiteSpace=wrap;html=1;fillColor=#dae8fc;strokeColor=#6c8ebf;" vertex="1" parent="WIyWlLk6GJQsqaUBKTNV-1">
          <mxGeometry x="240" y="555" width="120" height="60" as="geometry" />
        </mxCell>
        <mxCell id="xNNHHZg9rpnOxeQLHLPz-18" style="edgeStyle=orthogonalEdgeStyle;rounded=0;orthogonalLoop=1;jettySize=auto;html=1;exitX=1;exitY=0.5;exitDx=0;exitDy=0;entryX=0;entryY=0.5;entryDx=0;entryDy=0;" edge="1" parent="WIyWlLk6GJQsqaUBKTNV-1" source="xNNHHZg9rpnOxeQLHLPz-15" target="xNNHHZg9rpnOxeQLHLPz-17">
          <mxGeometry relative="1" as="geometry" />
        </mxCell>
        <mxCell id="xNNHHZg9rpnOxeQLHLPz-15" value="Lives = 10" style="rounded=1;whiteSpace=wrap;html=1;fillColor=#dae8fc;strokeColor=#6c8ebf;" vertex="1" parent="WIyWlLk6GJQsqaUBKTNV-1">
          <mxGeometry x="40" y="710" width="120" height="60" as="geometry" />
        </mxCell>
        <mxCell id="xNNHHZg9rpnOxeQLHLPz-23" style="edgeStyle=orthogonalEdgeStyle;rounded=0;orthogonalLoop=1;jettySize=auto;html=1;exitX=0.5;exitY=1;exitDx=0;exitDy=0;" edge="1" parent="WIyWlLk6GJQsqaUBKTNV-1" source="xNNHHZg9rpnOxeQLHLPz-17" target="xNNHHZg9rpnOxeQLHLPz-22">
          <mxGeometry relative="1" as="geometry" />
        </mxCell>
        <mxCell id="xNNHHZg9rpnOxeQLHLPz-17" value="Take user&#39;s guess as input" style="shape=parallelogram;html=1;strokeWidth=2;perimeter=parallelogramPerimeter;whiteSpace=wrap;rounded=1;arcSize=12;size=0.23;fillColor=#ffe6cc;strokeColor=#d79b00;" vertex="1" parent="WIyWlLk6GJQsqaUBKTNV-1">
          <mxGeometry x="195" y="700" width="210" height="80" as="geometry" />
        </mxCell>
        <mxCell id="xNNHHZg9rpnOxeQLHLPz-26" style="edgeStyle=orthogonalEdgeStyle;rounded=0;orthogonalLoop=1;jettySize=auto;html=1;exitX=0.5;exitY=1;exitDx=0;exitDy=0;" edge="1" parent="WIyWlLk6GJQsqaUBKTNV-1" source="xNNHHZg9rpnOxeQLHLPz-22" target="xNNHHZg9rpnOxeQLHLPz-25">
          <mxGeometry relative="1" as="geometry" />
        </mxCell>
        <mxCell id="xNNHHZg9rpnOxeQLHLPz-22" value="Create a function that compares the user&#39;s guess to the random number" style="rounded=1;whiteSpace=wrap;html=1;fillColor=#dae8fc;strokeColor=#6c8ebf;" vertex="1" parent="WIyWlLk6GJQsqaUBKTNV-1">
          <mxGeometry x="240" y="840" width="120" height="60" as="geometry" />
        </mxCell>
        <mxCell id="xNNHHZg9rpnOxeQLHLPz-30" value="Guess &amp;lt; Num" style="edgeStyle=orthogonalEdgeStyle;rounded=0;orthogonalLoop=1;jettySize=auto;html=1;exitX=0.5;exitY=1;exitDx=0;exitDy=0;exitPerimeter=0;" edge="1" parent="WIyWlLk6GJQsqaUBKTNV-1" source="xNNHHZg9rpnOxeQLHLPz-25" target="xNNHHZg9rpnOxeQLHLPz-29">
          <mxGeometry relative="1" as="geometry" />
        </mxCell>
        <mxCell id="xNNHHZg9rpnOxeQLHLPz-34" value="Guess &amp;gt; Num" style="edgeStyle=orthogonalEdgeStyle;rounded=0;orthogonalLoop=1;jettySize=auto;html=1;exitX=1;exitY=0.5;exitDx=0;exitDy=0;exitPerimeter=0;entryX=0;entryY=0.5;entryDx=0;entryDy=0;" edge="1" parent="WIyWlLk6GJQsqaUBKTNV-1" source="xNNHHZg9rpnOxeQLHLPz-25" target="xNNHHZg9rpnOxeQLHLPz-33">
          <mxGeometry relative="1" as="geometry">
            <Array as="points">
              <mxPoint x="390" y="1018" />
              <mxPoint x="390" y="1018" />
            </Array>
          </mxGeometry>
        </mxCell>
        <mxCell id="xNNHHZg9rpnOxeQLHLPz-42" value="Guess == Num" style="edgeStyle=orthogonalEdgeStyle;rounded=0;orthogonalLoop=1;jettySize=auto;html=1;exitX=0;exitY=0.5;exitDx=0;exitDy=0;exitPerimeter=0;entryX=1;entryY=0.5;entryDx=0;entryDy=0;" edge="1" parent="WIyWlLk6GJQsqaUBKTNV-1" source="xNNHHZg9rpnOxeQLHLPz-25" target="xNNHHZg9rpnOxeQLHLPz-41">
          <mxGeometry relative="1" as="geometry" />
        </mxCell>
        <mxCell id="xNNHHZg9rpnOxeQLHLPz-25" value="Guess == Num?&lt;br&gt;Guess &amp;lt; Num?&lt;br&gt;Guess &amp;gt; Num?" style="strokeWidth=2;html=1;shape=mxgraph.flowchart.decision;whiteSpace=wrap;fillColor=#fff2cc;strokeColor=#d6b656;" vertex="1" parent="WIyWlLk6GJQsqaUBKTNV-1">
          <mxGeometry x="240" y="960" width="120" height="115" as="geometry" />
        </mxCell>
        <mxCell id="xNNHHZg9rpnOxeQLHLPz-37" style="edgeStyle=orthogonalEdgeStyle;rounded=0;orthogonalLoop=1;jettySize=auto;html=1;exitX=1;exitY=0.5;exitDx=0;exitDy=0;entryX=1;entryY=0.5;entryDx=0;entryDy=0;entryPerimeter=0;" edge="1" parent="WIyWlLk6GJQsqaUBKTNV-1" source="xNNHHZg9rpnOxeQLHLPz-29" target="xNNHHZg9rpnOxeQLHLPz-35">
          <mxGeometry relative="1" as="geometry">
            <Array as="points">
              <mxPoint x="640" y="1170" />
              <mxPoint x="640" y="880" />
            </Array>
          </mxGeometry>
        </mxCell>
        <mxCell id="xNNHHZg9rpnOxeQLHLPz-29" value="Too low, guess again&lt;br&gt;Lives -= 1&lt;br&gt;You have (lives) attempts remaining" style="rounded=1;whiteSpace=wrap;html=1;fillColor=#dae8fc;strokeColor=#6c8ebf;" vertex="1" parent="WIyWlLk6GJQsqaUBKTNV-1">
          <mxGeometry x="240" y="1140" width="120" height="60" as="geometry" />
        </mxCell>
        <mxCell id="xNNHHZg9rpnOxeQLHLPz-36" style="edgeStyle=orthogonalEdgeStyle;rounded=0;orthogonalLoop=1;jettySize=auto;html=1;exitX=0.5;exitY=0;exitDx=0;exitDy=0;entryX=0.5;entryY=1;entryDx=0;entryDy=0;entryPerimeter=0;" edge="1" parent="WIyWlLk6GJQsqaUBKTNV-1" source="xNNHHZg9rpnOxeQLHLPz-33" target="xNNHHZg9rpnOxeQLHLPz-35">
          <mxGeometry relative="1" as="geometry" />
        </mxCell>
        <mxCell id="xNNHHZg9rpnOxeQLHLPz-33" value="Too high, guess again&lt;br&gt;Lives -= 1&lt;br&gt;You have (lives) attempts remaining" style="rounded=1;whiteSpace=wrap;html=1;fillColor=#dae8fc;strokeColor=#6c8ebf;" vertex="1" parent="WIyWlLk6GJQsqaUBKTNV-1">
          <mxGeometry x="460" y="987.5" width="120" height="60" as="geometry" />
        </mxCell>
        <mxCell id="xNNHHZg9rpnOxeQLHLPz-38" value="No" style="edgeStyle=orthogonalEdgeStyle;rounded=0;orthogonalLoop=1;jettySize=auto;html=1;exitX=0;exitY=0.5;exitDx=0;exitDy=0;exitPerimeter=0;entryX=0.792;entryY=0.287;entryDx=0;entryDy=0;entryPerimeter=0;" edge="1" parent="WIyWlLk6GJQsqaUBKTNV-1" source="xNNHHZg9rpnOxeQLHLPz-35" target="xNNHHZg9rpnOxeQLHLPz-25">
          <mxGeometry relative="1" as="geometry">
            <Array as="points">
              <mxPoint x="400" y="880" />
              <mxPoint x="400" y="993" />
            </Array>
          </mxGeometry>
        </mxCell>
        <mxCell id="xNNHHZg9rpnOxeQLHLPz-40" style="edgeStyle=orthogonalEdgeStyle;rounded=0;orthogonalLoop=1;jettySize=auto;html=1;exitX=0.5;exitY=0;exitDx=0;exitDy=0;exitPerimeter=0;entryX=0.5;entryY=1;entryDx=0;entryDy=0;" edge="1" parent="WIyWlLk6GJQsqaUBKTNV-1" source="xNNHHZg9rpnOxeQLHLPz-35" target="xNNHHZg9rpnOxeQLHLPz-39">
          <mxGeometry relative="1" as="geometry" />
        </mxCell>
        <mxCell id="xNNHHZg9rpnOxeQLHLPz-35" value="Lives = 0?" style="strokeWidth=2;html=1;shape=mxgraph.flowchart.decision;whiteSpace=wrap;fillColor=#fff2cc;strokeColor=#d6b656;" vertex="1" parent="WIyWlLk6GJQsqaUBKTNV-1">
          <mxGeometry x="470" y="830" width="100" height="100" as="geometry" />
        </mxCell>
        <mxCell id="xNNHHZg9rpnOxeQLHLPz-39" value="You&#39;ve run out of guesses, you lose" style="ellipse;whiteSpace=wrap;html=1;fillColor=#d5e8d4;strokeColor=#82b366;" vertex="1" parent="WIyWlLk6GJQsqaUBKTNV-1">
          <mxGeometry x="460" y="700" width="120" height="80" as="geometry" />
        </mxCell>
        <mxCell id="xNNHHZg9rpnOxeQLHLPz-41" value="You got it! The answer was (Num)." style="ellipse;whiteSpace=wrap;html=1;fillColor=#d5e8d4;strokeColor=#82b366;" vertex="1" parent="WIyWlLk6GJQsqaUBKTNV-1">
          <mxGeometry x="30" y="977.5" width="120" height="80" as="geometry" />
        </mxCell>
      </root>
    </mxGraphModel>
  </diagram>
</mxfile>
